<mxfile host="app.diagrams.net" agent="Mozilla/5.0 (Windows NT 10.0; Win64; x64) AppleWebKit/537.36 (KHTML, like Gecko) Chrome/141.0.0.0 Safari/537.36" version="28.2.8">
  <diagram name="PÃ¡gina-1" id="ls1rP4yREk3hh1e5Am_-">
    <mxGraphModel dx="591" dy="500" grid="0" gridSize="10" guides="1" tooltips="1" connect="1" arrows="1" fold="1" page="0" pageScale="1" pageWidth="827" pageHeight="1169" math="0" shadow="0">
      <root>
        <mxCell id="0" />
        <mxCell id="1" parent="0" />
        <mxCell id="pHEgDx6qTVr6azBag485-1" value="Funcionario" style="text;html=1;whiteSpace=wrap;strokeColor=none;fillColor=none;align=center;verticalAlign=middle;rounded=0;" vertex="1" parent="1">
          <mxGeometry x="-276" y="-20" width="60" height="30" as="geometry" />
        </mxCell>
        <mxCell id="pHEgDx6qTVr6azBag485-2" value="" style="ellipse;" vertex="1" parent="1">
          <mxGeometry x="-276" y="25" width="30" height="30" as="geometry" />
        </mxCell>
        <mxCell id="pHEgDx6qTVr6azBag485-3" value="Activo" style="html=1;align=center;verticalAlign=top;rounded=1;absoluteArcSize=1;arcSize=10;dashed=0;whiteSpace=wrap;" vertex="1" parent="1">
          <mxGeometry x="-180" y="26.5" width="71" height="27" as="geometry" />
        </mxCell>
        <mxCell id="pHEgDx6qTVr6azBag485-4" value="" style="endArrow=open;startArrow=none;endFill=0;startFill=0;endSize=8;html=1;verticalAlign=bottom;labelBackgroundColor=none;strokeWidth=1;rounded=0;exitX=1;exitY=0.5;exitDx=0;exitDy=0;entryX=0;entryY=0.5;entryDx=0;entryDy=0;" edge="1" parent="1" source="pHEgDx6qTVr6azBag485-2" target="pHEgDx6qTVr6azBag485-3">
          <mxGeometry width="160" relative="1" as="geometry">
            <mxPoint x="-220" y="99" as="sourcePoint" />
            <mxPoint x="-60" y="99" as="targetPoint" />
          </mxGeometry>
        </mxCell>
        <mxCell id="pHEgDx6qTVr6azBag485-36" value="gerente registra" style="text;html=1;whiteSpace=wrap;strokeColor=none;fillColor=none;align=center;verticalAlign=middle;rounded=0;" vertex="1" parent="1">
          <mxGeometry x="-246" y="10" width="60" height="30" as="geometry" />
        </mxCell>
      </root>
    </mxGraphModel>
  </diagram>
</mxfile>
